<svg width="59" height="22" viewBox="0 0 59 22" fill="none" xmlns="http://www.w3.org/2000/svg">
<path d="M3.232 19.648H0.96V12.016C0.96 9.632 2.784 7.856 5.248 7.856C7.696 7.856 9.536 9.744 9.536 12.016C9.536 14.496 7.84 16.224 5.376 16.224C4.576 16.224 3.824 15.936 3.232 15.488V19.648ZM5.248 14.08C6.416 14.08 7.264 13.152 7.264 12.032C7.264 10.912 6.416 10 5.248 10C4.08 10 3.232 10.912 3.232 12.032C3.232 13.152 4.08 14.08 5.248 14.08Z" fill="url(#paint0_angular_3_10)"/>
<path d="M14.48 16.208C12.176 16.208 10.56 14.32 10.56 12.016C10.56 9.744 12.416 7.84 14.848 7.84C17.328 7.84 19.152 9.632 19.152 12.016V16H16.992V15.072C16.432 15.776 15.568 16.208 14.48 16.208ZM14.848 14.08C16.016 14.08 16.88 13.152 16.88 12.032C16.88 10.912 16.016 9.984 14.848 9.984C13.68 9.984 12.832 10.912 12.832 12.032C12.832 13.152 13.68 14.08 14.848 14.08ZM21.3738 4.432H23.6458V16H21.3738V4.432ZM29.7863 16.208C27.3223 16.208 25.4663 14.496 25.4663 11.968C25.4663 9.68 27.1303 7.792 29.5783 7.792C32.0903 7.792 33.5463 9.648 33.5463 11.808V12.48H27.6583C27.8183 13.536 28.6343 14.24 29.7703 14.24C30.6343 14.24 31.3543 13.824 31.7223 13.088L33.4663 13.968C32.7783 15.392 31.4663 16.208 29.7863 16.208ZM27.7543 11.216H31.2903C31.1943 10.4 30.5223 9.776 29.5623 9.776C28.5703 9.776 27.9143 10.416 27.7543 11.216ZM39.29 16.224C37.002 16.224 35.866 14.848 35.866 12.864V10H34.41V8.08H35.866V6.064H38.138V8.08H40.938V10H38.138V12.8C38.138 13.68 38.666 14.192 39.498 14.192C39.962 14.192 40.554 14.048 40.938 13.808V15.84C40.538 16.096 39.85 16.224 39.29 16.224ZM46.6963 16.224C44.4083 16.224 43.2723 14.848 43.2723 12.864V10H41.8163V8.08H43.2723V6.064H45.5443V8.08H48.3443V10H45.5443V12.8C45.5443 13.68 46.0723 14.192 46.9043 14.192C47.3683 14.192 47.9603 14.048 48.3443 13.808V15.84C47.9443 16.096 47.2563 16.224 46.6963 16.224ZM53.8175 16.208C51.3535 16.208 49.4975 14.496 49.4975 11.968C49.4975 9.68 51.1615 7.792 53.6095 7.792C56.1215 7.792 57.5775 9.648 57.5775 11.808V12.48H51.6895C51.8495 13.536 52.6655 14.24 53.8015 14.24C54.6655 14.24 55.3855 13.824 55.7535 13.088L57.4975 13.968C56.8095 15.392 55.4975 16.208 53.8175 16.208ZM51.7855 11.216H55.3215C55.2255 10.4 54.5535 9.776 53.5935 9.776C52.6015 9.776 51.9455 10.416 51.7855 11.216Z" fill="black"/>
<defs>
<radialGradient id="paint0_angular_3_10" cx="0" cy="0" r="1" gradientUnits="userSpaceOnUse" gradientTransform="translate(5.5 13.2786) rotate(-141.181) scale(60 5)">
<stop stop-color="#FF6A6A"/>
<stop offset="0.335" stop-color="#FEC324"/>
<stop offset="0.735" stop-color="#6DD71E"/>
<stop offset="1" stop-color="#4A94EF"/>
</radialGradient>
</defs>
</svg>
